<svg xmlns="http://www.w3.org/2000/svg" viewBox="0 0 1200 675" width="1200" height="675" role="img" aria-label="Custos cover art">
  <defs>
    <linearGradient id="c-bg" x1="0" y1="0" x2="1" y2="1">
      <stop offset="0%" stop-color="#0a1220"/>
      <stop offset="55%" stop-color="#080b12"/>
      <stop offset="100%" stop-color="#06070d"/>
    </linearGradient>
    <radialGradient id="c-glow" cx="50%" cy="36%" r="48%">
      <stop offset="0%" stop-color="#3b82f6" stop-opacity="0.42"/>
      <stop offset="100%" stop-color="#3b82f6" stop-opacity="0"/>
    </radialGradient>
    <radialGradient id="c-glow2" cx="88%" cy="80%" r="42%">
      <stop offset="0%" stop-color="#8b5cf6" stop-opacity="0.32"/>
      <stop offset="100%" stop-color="#8b5cf6" stop-opacity="0"/>
    </radialGradient>
    <linearGradient id="c-shield" x1="0" y1="0" x2="0" y2="1">
      <stop offset="0%" stop-color="#ffffff" stop-opacity="0.18"/>
      <stop offset="100%" stop-color="#ffffff" stop-opacity="0.05"/>
    </linearGradient>
    <linearGradient id="c-flow" x1="0" y1="0" x2="1" y2="0">
      <stop offset="0%" stop-color="#22d3ee" stop-opacity="0.12"/>
      <stop offset="50%" stop-color="#22d3ee" stop-opacity="0.85"/>
      <stop offset="100%" stop-color="#22d3ee" stop-opacity="0.12"/>
    </linearGradient>
  </defs>

  <rect width="1200" height="675" fill="url(#c-bg)"/>
  <rect width="1200" height="675" fill="url(#c-glow)"/>
  <rect width="1200" height="675" fill="url(#c-glow2)"/>

  <g stroke="#ffffff" stroke-opacity="0.05" stroke-width="1">
    <path d="M0 130 H1200 M0 290 H1200 M0 450 H1200"/>
  </g>

  <g>
    <path d="M150 300 H1050" stroke="url(#c-flow)" stroke-width="4" stroke-dasharray="24 16" stroke-linecap="round"/>
    <rect x="96" y="286" width="112" height="28" rx="14" fill="#ffffff" fill-opacity="0.10" stroke="#ffffff" stroke-opacity="0.24"/>
    <rect x="992" y="286" width="112" height="28" rx="14" fill="#ffffff" fill-opacity="0.10" stroke="#ffffff" stroke-opacity="0.24"/>
    <g fill="#ffffff" fill-opacity="0.6" font-family="Helvetica, Arial, sans-serif" font-size="22" font-weight="600" letter-spacing="3" text-anchor="middle">
      <text x="152" y="256">AGENT</text>
      <text x="1048" y="256">PAYMENT RAIL</text>
    </g>
  </g>

  <g transform="translate(600,296) scale(1.16)">
    <circle r="150" fill="#080b12" fill-opacity="0.85"/>
    <path d="M0 -142 L114 -96 V12 Q114 100 0 150 Q-114 100 -114 12 V-96 Z" fill="url(#c-shield)" stroke="#ffffff" stroke-opacity="0.34" stroke-width="3"/>
    <path d="M0 -112 L84 -78 V6 Q84 74 0 114 Q-84 74 -84 6 V-78 Z" fill="none" stroke="#3b82f6" stroke-opacity="0.6" stroke-width="2"/>
    <path d="M-36 4 L-8 34 L42 -28" fill="none" stroke="#ffffff" stroke-width="14" stroke-linecap="round" stroke-linejoin="round"/>
  </g>

  <g fill="none" stroke="#ffffff" stroke-opacity="0.2" stroke-width="2">
    <rect x="222" y="486" width="212" height="62" rx="16"/>
    <rect x="494" y="486" width="212" height="62" rx="16"/>
    <rect x="766" y="486" width="212" height="62" rx="16"/>
  </g>
  <g font-family="Helvetica, Arial, sans-serif" font-size="22" font-weight="600" fill="#ffffff" fill-opacity="0.66" text-anchor="middle" letter-spacing="3">
    <text x="328" y="524">BUDGETS</text>
    <text x="600" y="524">APPROVALS</text>
    <text x="872" y="524">AUDIT TRAIL</text>
  </g>

  <g font-family="Helvetica, Arial, sans-serif" text-anchor="middle">
    <text x="600" y="614" fill="#ffffff" font-size="56" font-weight="700" letter-spacing="14">CUSTOS</text>
    <text x="600" y="648" fill="#ffffff" fill-opacity="0.5" font-size="20" font-weight="500" letter-spacing="4">2FA FOR AGENTS THAT MOVE MONEY</text>
  </g>
</svg>
